<svg width="16" height="54" viewBox="0 0 16 54" fill="none" xmlns="http://www.w3.org/2000/svg">
<path d="M15.3364 21.8939L15.7051 46.0653C15.7051 48.4163 15.6805 49.9102 15.6313 50.5469C15.5822 51.7224 14.5991 52.5796 12.682 53.1184C10.765 53.7061 9.06912 54 7.59447 54C6.11982 54 5.38249 53.6326 5.38249 52.898C5.38249 52.5061 5.50538 51.1837 5.75115 48.9306C6.63594 41.8775 7.07834 34.1633 7.07834 25.7878L6.78341 14.5469C6.48848 12 5.13671 10.7265 2.72811 10.7265L1.25346 10.8735C0.417819 10.8735 0 10.6041 0 10.0653C0 8.84081 2.03994 6.85714 6.11982 4.11428C10.2488 1.37143 13.149 0 14.8203 0C15.6068 0 16 0.514284 16 1.54285C16 2.52245 15.8771 5.11837 15.6313 9.33061C15.4347 13.5429 15.3364 17.7306 15.3364 21.8939Z" fill="#273335"/>
</svg>
