<svg width="32" height="54" viewBox="0 0 32 54" fill="none" xmlns="http://www.w3.org/2000/svg">
<path d="M20.424 53.2713L8.70046 52.6154C5.89862 52.6154 3.6129 53.004 1.84332 53.7814C1.49923 53.9271 1.2043 54 0.958525 54C0.319508 54 0 53.1984 0 51.5951C0 49.9433 0.466974 48 1.40092 45.7652C2.33487 43.4818 3.46544 41.3684 4.79263 39.4251C7.59447 35.1984 10.0276 31.9919 12.0922 29.8057L13.4931 28.3482C16.1966 25.4818 18.3594 22.664 19.9816 19.8947C21.6528 17.1255 22.4885 14.1134 22.4885 10.8583C22.4885 7.79757 21.2842 5.85425 18.8756 5.02834C18.3349 4.83401 17.573 4.73684 16.5899 4.73684C15.6068 4.68826 14.6728 4.8583 13.788 5.24696C12.9032 5.63562 12.2396 6.12146 11.7972 6.70445C10.9616 7.91903 10.5192 9.03643 10.47 10.0567C10.3717 11.8057 10.765 12.9717 11.6498 13.5547L12.0184 13.8462C13.0507 14.2834 13.5668 14.9393 13.5668 15.8138V15.8866C13.5668 17.1984 13.1736 18.2429 12.3871 19.0202C11.6006 19.749 10.8141 20.1619 10.0276 20.2591L8.77419 20.4049C7.29954 20.4049 6.04608 20.1376 5.01382 19.6032C4.03072 19.0688 3.34255 18.3887 2.94931 17.5627C2.21198 16.1053 1.84332 14.6478 1.84332 13.1903C1.84332 9.06073 3.41628 5.82996 6.56221 3.49797C9.7573 1.16599 13.3948 0 17.4747 0C21.5545 0 24.9954 1.04453 27.7972 3.1336C30.5991 5.22267 32 8.13765 32 11.8785C32 16.9312 29.8126 21.3765 25.4378 25.2146L23.9631 26.4534C17.3763 31.9919 13.0507 36.5101 10.9862 40.0081C10.2488 41.2227 9.88018 42.2429 9.88018 43.0688C9.88018 43.6032 10.3472 43.9433 11.2811 44.0891C12.2642 44.1862 14.1321 44.2348 16.8848 44.2348C23.8157 44.2348 28.3134 43.1174 30.3779 40.8826C30.6237 40.7368 30.8694 40.664 31.1152 40.664C31.7051 40.664 32 41.4899 32 43.1417C32 44.7935 31.6559 46.5668 30.9677 48.4615C30.2796 50.3077 29.2719 51.6194 27.9447 52.3968C27.0108 52.9798 24.5038 53.2713 20.424 53.2713Z" fill="#273335"/>
</svg>
