<svg width="32" height="54" viewBox="0 0 32 54" fill="none" xmlns="http://www.w3.org/2000/svg">
<path d="M7.77778 26.5185C7.4321 26.5185 7.25926 26.3951 7.25926 26.1481V26C7.40741 22.8395 8.2963 21.2593 9.92593 21.2593H11.4074C13.1852 21.2593 14.716 20.963 16 20.3704C17.3333 19.7778 18.3457 19.0864 19.037 18.2963C19.7284 17.4568 20.2716 16.4691 20.6667 15.3333C21.2593 13.7037 21.5556 12.1481 21.5556 10.6667C21.5556 9.1358 21.3333 7.92593 20.8889 7.03704C20.4444 6.14815 19.8765 5.53086 19.1852 5.18519C18.0988 4.64198 16.8642 4.37037 15.4815 4.37037C14.0988 4.37037 12.8395 4.88889 11.7037 5.92593C10.5679 6.96296 10 8.34568 10 10.0741C10 10.8148 10.1481 11.5556 10.4444 12.2963C10.7407 13.037 10.8889 13.4815 10.8889 13.6296C10.8889 14.3704 10.4691 14.9383 9.62963 15.3333C8.79012 15.679 7.80247 15.8519 6.66667 15.8519C5.58025 15.8519 4.61728 15.4815 3.77778 14.7407C2.93827 14 2.41975 13.2839 2.22222 12.5926C2.07407 11.8519 2 11.1111 2 10.3704C2 7.95062 2.83951 5.92593 4.51852 4.2963C7.53086 1.4321 11.7778 0 17.2593 0C18.3951 0 19.8025 0.222223 21.4815 0.666667C23.2099 1.06173 24.642 1.60494 25.7778 2.2963C26.9136 2.93827 27.9506 4 28.8889 5.48148C29.8272 6.96296 30.2963 8.66667 30.2963 10.5926C30.2963 12.4691 29.9753 14.1482 29.3333 15.6296C28.7407 17.0617 28 18.1975 27.1111 19.037C25.2346 20.7654 23.5802 21.8025 22.1481 22.1481L21.2593 22.4444C20.963 22.642 20.8148 22.8395 20.8148 23.037C20.8148 23.1852 20.963 23.284 21.2593 23.3333C21.6049 23.3827 22 23.4815 22.4444 23.6296C22.9383 23.7284 23.8025 24.0988 25.037 24.7407C26.2716 25.3333 27.358 26.0988 28.2963 27.037C29.2346 27.9753 30.0741 29.358 30.8148 31.1852C31.6049 32.963 32 35.2346 32 38C32 40.716 31.4074 43.2346 30.2222 45.5556C29.037 47.8272 27.5802 49.4815 25.8519 50.5185C22.3457 52.6914 19.2346 53.8272 16.5185 53.9259L14.7407 54C10.0494 54 6.41975 53.037 3.85185 51.1111C1.28395 49.1358 0 46.5432 0 43.3333C0 40.8642 0.666667 38.6667 2 36.7407C3.38272 34.8148 5.20988 33.8519 7.48148 33.8519C8.71605 33.8519 9.82716 34.1235 10.8148 34.6667C11.8519 35.2099 12.3704 36 12.3704 37.037C12.3704 37.5802 12.1481 37.9506 11.7037 38.1481C10.963 38.5926 10.3951 39.2346 10 40.0741C9.60494 40.8642 9.38272 41.5556 9.33333 42.1481L9.25926 43.037C9.25926 44.8148 9.75309 46.2716 10.7407 47.4074C11.7284 48.4938 13.0123 49.037 14.5926 49.037C19.7284 49.037 22.2963 44.8148 22.2963 36.3704C22.2963 32.8642 21.2099 30.321 19.037 28.7407C16.8642 27.1605 14.0247 26.3704 10.5185 26.3704C10.2222 26.3704 9.92593 26.3704 9.62963 26.3704L7.92593 26.5185H7.77778Z" fill="#273335"/>
</svg>
