<svg width="34" height="54" viewBox="0 0 34 54" fill="none" xmlns="http://www.w3.org/2000/svg">
<path d="M10.0926 31.8725L16.0337 32.019C18.1333 32.019 19.7796 31.9946 20.9726 31.9457C21.1158 27.9403 21.1874 24.4233 21.1874 21.3948L21.1158 14.2144C21.1158 13.5794 20.9488 13.2619 20.6147 13.2619L19.7558 13.7015C18.2765 15.3623 16.7018 17.536 15.0316 20.2225C13.4091 22.9091 12.1446 25.2049 11.2379 27.1099L9.8779 29.8942C9.68702 30.3338 9.59158 30.7734 9.59158 31.213C9.59158 31.6526 9.7586 31.8725 10.0926 31.8725ZM20.6147 39.4925L14.4589 39.4193L1.57474 39.5658C0.524912 39.5658 0 39.0773 0 38.1004L0.143158 37.2944C3.19719 29.5767 8.32702 20.8087 15.5326 10.9905C17.8232 7.81547 19.9467 5.1289 21.9032 2.9308L22.8337 1.97829C24.0744 0.65943 25.9116 0 28.3453 0C29.6337 0 30.2779 0.390774 30.2779 1.17232C29.5144 8.0597 29.1326 15.0692 29.1326 22.2008V31.5061C29.753 31.4573 30.4211 31.4084 31.1368 31.3596L32.7832 31.213C33.1172 31.213 33.3319 31.213 33.4274 31.213C33.8091 31.213 34 31.3351 34 31.5794C34 32.4098 33.5944 33.7531 32.7832 35.6092C31.9719 37.4654 31.1368 38.5889 30.2779 38.9796L29.2758 39.1995C29.3712 44.7191 29.6098 48.4315 29.9916 50.3365C29.9916 51.6065 29.0372 52.5346 27.1284 53.1208C25.2674 53.7069 23.4779 54 21.76 54C20.0898 54 19.2547 53.6092 19.2547 52.8277C19.2547 52.73 19.3979 51.753 19.6842 49.8969C19.9705 48.0407 20.2807 44.5726 20.6147 39.4925Z" fill="#273335"/>
</svg>
