<svg width="32" height="54" viewBox="0 0 32 54" fill="none" xmlns="http://www.w3.org/2000/svg">
<path d="M25.2593 8.98762L17.9259 8.46768C13.3333 8.46768 10.9383 9.08666 10.7407 10.3246C10.0494 13.5928 9.65432 16.4897 9.55556 19.0151C9.55556 19.5103 9.7284 19.7579 10.0741 19.7579C10.1728 19.7579 10.321 19.7084 10.5185 19.6094C12.2963 18.6685 14.3457 18.1981 16.6667 18.1981C18.9877 18.1981 21.0617 18.5447 22.8889 19.238C24.7654 19.9312 26.2222 20.8721 27.2593 22.0605C28.2963 23.249 29.1605 24.4622 29.8519 25.7001C30.5926 26.8886 31.1111 28.2256 31.4074 29.7111C31.8025 32.088 32 34.0688 32 35.6534C32 40.9023 30.5679 45.2847 27.7037 48.8005C24.8889 52.2668 20.8642 54 15.6296 54H15.4074C10.8148 54 7.08642 53.1087 4.22222 51.326C1.40741 49.5433 0 46.8446 0 43.2297C0 41.4966 0.246914 39.9862 0.740741 38.6988C1.28395 37.4113 1.92593 36.4704 2.66667 35.8762C4.19753 34.6382 5.58025 33.9697 6.81481 33.8707L7.55556 33.7964C8.69136 33.7964 9.77778 34.0688 10.8148 34.6135C11.8519 35.1087 12.3704 35.8762 12.3704 36.9161C12.3704 37.3122 12.0988 37.7332 11.5556 38.1788C11.0123 38.575 10.5432 39.194 10.1481 40.0358C9.75309 40.8281 9.53086 41.4966 9.48148 42.0413L9.33333 42.9326C9.33333 44.2696 9.55556 45.4085 10 46.3494C10.4444 47.2407 11.0123 47.8349 11.7037 48.1321C12.8395 48.6768 13.8025 48.9491 14.5926 48.9491C16.321 48.9491 17.7531 48.3796 18.8889 47.2407C20.0741 46.0523 20.8889 44.5667 21.3333 42.784C21.9753 40.011 22.2963 37.8569 22.2963 36.3219C22.2963 27.8542 19.9259 23.6204 15.1852 23.6204C12.2716 23.6204 9.92593 24.9574 8.14815 27.6314C7.90124 28.4732 6.83951 28.8941 4.96296 28.8941C3.08642 28.8941 2.14815 28.4979 2.14815 27.7056V27.4085C3.23457 21.0206 4.12346 12.4044 4.81481 1.55984C4.96296 1.11417 5.30864 0.841817 5.85185 0.742778C7.87654 0.643742 10.1481 0.594223 12.6667 0.594223L21.1852 0.742778C25.7284 0.742778 28.4691 0.544705 29.4074 0.148559C29.6049 0.0495199 29.8272 0 30.0741 0C30.5679 0 30.8148 0.247593 30.8148 0.742778C30.8148 2.1293 30.2222 3.86245 29.037 5.94223C27.9012 7.97249 26.642 8.98762 25.2593 8.98762Z" fill="#273335"/>
</svg>
