<svg width="32" height="32" viewBox="0 0 32 32" fill="none" xmlns="http://www.w3.org/2000/svg">
<path d="M6.00727 22.0297L16.0033 12.4165L25.9993 22.0297C26.1779 22.2018 26.4176 22.2982 26.6673 22.2982C26.9169 22.2982 27.1567 22.2018 27.3353 22.0297C27.4217 21.9462 27.4904 21.8464 27.5373 21.7363C27.5842 21.6262 27.6084 21.5079 27.6084 21.3885C27.6084 21.269 27.5842 21.1508 27.5373 21.0407C27.4904 20.9306 27.4217 20.8308 27.3353 20.7472L16.7013 10.5184C16.5145 10.3388 16.2641 10.2383 16.0033 10.2383C15.7425 10.2383 15.492 10.3388 15.3053 10.5184L4.67126 20.7452C4.58418 20.8289 4.51496 20.9289 4.4677 21.0394C4.42043 21.1499 4.39609 21.2686 4.39609 21.3885C4.39609 21.5084 4.42043 21.6271 4.4677 21.7376C4.51496 21.848 4.58418 21.9481 4.67126 22.0317C4.84986 22.2038 5.08961 22.3002 5.33927 22.3002C5.58892 22.3002 5.82867 22.2038 6.00727 22.0317V22.0297Z" fill="#1B1B30"/>
</svg>
