<svg width="32" height="32" viewBox="0 0 32 32" fill="none" xmlns="http://www.w3.org/2000/svg">
<path d="M25.4036 10.269L15.499 19.8329L5.59441 10.269C5.41745 10.0978 5.1799 10.002 4.93252 10.002C4.68515 10.002 4.4476 10.0978 4.27063 10.269C4.18495 10.3522 4.11688 10.4515 4.07041 10.561C4.02394 10.6706 4 10.7882 4 10.907C4 11.0259 4.02394 11.1435 4.07041 11.253C4.11688 11.3626 4.18495 11.4618 4.27063 11.545L14.8074 21.7213C14.9924 21.9 15.2406 22 15.499 22C15.7574 22 16.0056 21.9 16.1906 21.7213L26.7273 11.547C26.8136 11.4637 26.8822 11.3642 26.929 11.2543C26.9759 11.1444 27 11.0263 27 10.907C27 10.7877 26.9759 10.6696 26.929 10.5597C26.8822 10.4498 26.8136 10.3503 26.7273 10.2671C26.5504 10.0959 26.3128 10 26.0654 10C25.8181 10 25.5805 10.0959 25.4036 10.2671V10.269Z" fill="#1B1B30"/>
</svg>
