<svg width="32" height="32" viewBox="0 0 32 32" fill="none" xmlns="http://www.w3.org/2000/svg">
<path d="M30 2.99639L21.993 2.99642V1.00342C21.993 0.450918 21.5455 0.00341797 20.993 0.00341797C20.4405 0.00341797 19.993 0.450918 19.993 1.00342V2.99592H11.993V1.00342C11.993 0.450918 11.5455 0.00341797 10.993 0.00341797C10.4405 0.00341797 9.993 0.450918 9.993 1.00342V2.99592H2C0.8955 2.99592 0 3.89142 0 4.99592V29.9959C0 31.1004 0.8955 31.9959 2 31.9959H30C31.1045 31.9959 32 31.1004 32 29.9959V4.99592C32 3.89189 31.1045 2.99639 30 2.99639ZM30 29.9959H2V4.99592H9.993V6.00342C9.993 6.55589 10.4405 7.00342 10.993 7.00342C11.5455 7.00342 11.993 6.55589 11.993 6.00342V4.99642H19.993V6.00392C19.993 6.55642 20.4405 7.00392 20.993 7.00392C21.5455 7.00392 21.993 6.55642 21.993 6.00392V4.99642H30V29.9959ZM23 15.9964H25C25.552 15.9964 26 15.5484 26 14.9964V12.9964C26 12.4444 25.552 11.9964 25 11.9964H23C22.448 11.9964 22 12.4444 22 12.9964V14.9964C22 15.5484 22.448 15.9964 23 15.9964ZM23 23.9959H25C25.552 23.9959 26 23.5484 26 22.9959V20.9959C26 20.4439 25.552 19.9959 25 19.9959H23C22.448 19.9959 22 20.4439 22 20.9959V22.9959C22 23.5489 22.448 23.9959 23 23.9959ZM17 19.9959H15C14.448 19.9959 14 20.4439 14 20.9959V22.9959C14 23.5484 14.448 23.9959 15 23.9959H17C17.552 23.9959 18 23.5484 18 22.9959V20.9959C18 20.4444 17.552 19.9959 17 19.9959ZM17 11.9964H15C14.448 11.9964 14 12.4444 14 12.9964V14.9964C14 15.5484 14.448 15.9964 15 15.9964H17C17.552 15.9964 18 15.5484 18 14.9964V12.9964C18 12.4439 17.552 11.9964 17 11.9964ZM9 11.9964H7C6.448 11.9964 6 12.4444 6 12.9964V14.9964C6 15.5484 6.448 15.9964 7 15.9964H9C9.552 15.9964 10 15.5484 10 14.9964V12.9964C10 12.4439 9.552 11.9964 9 11.9964ZM9 19.9959H7C6.448 19.9959 6 20.4439 6 20.9959V22.9959C6 23.5484 6.448 23.9959 7 23.9959H9C9.552 23.9959 10 23.5484 10 22.9959V20.9959C10 20.4444 9.552 19.9959 9 19.9959Z" fill="#1B1B30"/>
</svg>
