<svg width="33" height="33" viewBox="0 0 33 33" fill="none" xmlns="http://www.w3.org/2000/svg">
<path d="M16.959 24.0208L18.3908 22.6297L12.8181 17.0154L24.968 17.0312L24.9706 15.0312L12.8207 15.0154L18.4079 9.44966L16.9797 8.02081L8.96936 16.0104L16.959 24.0208Z" fill="white"/>
<path d="M16.9874 2.02086C19.7564 2.02444 22.4621 2.84903 24.7624 4.39035C27.0627 5.93167 28.8542 8.1205 29.9105 10.68C30.9669 13.2396 31.2405 16.0549 30.6968 18.7699C30.153 21.4849 28.8164 23.9778 26.856 25.9332C24.8955 27.8886 22.3992 29.2187 19.6828 29.7554C16.9664 30.292 14.1518 30.0111 11.595 28.9482C9.0382 27.8853 6.85403 26.088 5.31867 23.7837C3.78331 21.4795 2.96573 18.7717 2.96932 16.0027C2.97836 12.291 4.45933 8.73441 7.08731 6.11322C9.7153 3.49203 13.2757 2.02028 16.9874 2.02086ZM16.9538 28.0208C19.3271 28.0239 21.6481 27.3231 23.6232 26.0071C25.5983 24.6911 27.1388 22.8189 28.0499 20.6274C28.961 18.4359 29.2018 16.0234 28.7418 13.695C28.2817 11.3666 27.1416 9.22696 25.4656 7.54656C23.7895 5.86616 21.6528 4.7205 19.3256 4.25446C16.9985 3.78843 14.5854 4.02294 12.3915 4.92835C10.1976 5.83376 8.32145 7.3694 7.00032 9.34109C5.67919 11.3128 4.97239 13.6319 4.96932 16.0053C4.9689 19.1868 6.23042 22.2385 8.47714 24.491C10.7239 26.7436 13.7723 28.013 16.9538 28.0208Z" fill="white"/>
</svg>
