<svg width="33" height="33" viewBox="0 0 33 33" fill="none" xmlns="http://www.w3.org/2000/svg">
<path d="M16.9971 8.02062L15.5666 9.41317L21.1449 15.0219L8.99486 15.0181L8.99423 17.0181L21.1442 17.0219L15.5625 22.5932L16.992 24.0206L24.9945 16.0231L16.9971 8.02062Z" fill="white"/>
<path d="M16.9902 30.0206C14.2213 30.0197 11.5148 29.1978 9.21295 27.6587C6.91115 26.1196 5.11742 23.9326 4.05861 21.3741C2.99979 18.8156 2.72343 16.0005 3.26448 13.285C3.80553 10.5694 5.13969 8.07527 7.09824 6.11795C9.05679 4.16063 11.5518 2.82805 14.2677 2.28871C16.9836 1.74938 19.7984 2.02751 22.3563 3.08795C24.9141 4.14838 27.1 5.94349 28.6376 8.24626C30.1753 10.549 30.9955 13.256 30.9946 16.025C30.9892 19.7367 29.5117 23.2947 26.8863 25.9185C24.2609 28.5423 20.7019 30.0175 16.9902 30.0206ZM16.9984 4.02057C14.625 4.01982 12.3047 4.72288 10.3309 6.04083C8.35711 7.35878 6.81845 9.23244 5.90951 11.4249C5.00056 13.6173 4.76216 16.03 5.22445 18.3579C5.68674 20.6859 6.82895 22.8244 8.50665 24.5032C10.1844 26.1819 12.3222 27.3255 14.6498 27.7893C16.9774 28.253 19.3903 28.0161 21.5833 27.1086C23.7763 26.201 25.6509 24.6635 26.9701 22.6906C28.2893 20.7176 28.9939 18.3977 28.9946 16.0244C28.9919 12.8429 27.7274 9.7924 25.4785 7.54206C23.2296 5.29171 20.1799 4.02528 16.9984 4.02057Z" fill="white"/>
</svg>
