<svg width="32" height="33" viewBox="0 0 32 33" fill="none" xmlns="http://www.w3.org/2000/svg">
<path d="M9 3.5C7.67392 3.5 6.40215 4.02678 5.46447 4.96447C4.52678 5.90215 4 7.17392 4 8.5V22.5C4 23.8261 4.52678 25.0979 5.46447 26.0355C6.40215 26.9732 7.67392 27.5 9 27.5H23C24.3261 27.5 25.5979 26.9732 26.5355 26.0355C27.4732 25.0979 28 23.8261 28 22.5V8.5C28 7.17392 27.4732 5.90215 26.5355 4.96447C25.5979 4.02678 24.3261 3.5 23 3.5H9ZM6 8.5C6 7.70435 6.31607 6.94129 6.87868 6.37868C7.44129 5.81607 8.20435 5.5 9 5.5H23C23.7956 5.5 24.5587 5.81607 25.1213 6.37868C25.6839 6.94129 26 7.70435 26 8.5V22.5C26 23.2956 25.6839 24.0587 25.1213 24.6213C24.5587 25.1839 23.7956 25.5 23 25.5H9C8.20435 25.5 7.44129 25.1839 6.87868 24.6213C6.31607 24.0587 6 23.2956 6 22.5V8.5ZM21.708 13.208C21.8958 13.0202 22.0013 12.7656 22.0013 12.5C22.0013 12.2344 21.8958 11.9798 21.708 11.792C21.5202 11.6042 21.2656 11.4987 21 11.4987C20.7344 11.4987 20.4798 11.6042 20.292 11.792L14 18.086L11.708 15.792C11.5202 15.6042 11.2656 15.4987 11 15.4987C10.7344 15.4987 10.4798 15.6042 10.292 15.792C10.1042 15.9798 9.99874 16.2344 9.99874 16.5C9.99874 16.7656 10.1042 17.0202 10.292 17.208L13.292 20.208C13.3849 20.3011 13.4952 20.375 13.6167 20.4254C13.7382 20.4758 13.8685 20.5018 14 20.5018C14.1315 20.5018 14.2618 20.4758 14.3833 20.4254C14.5048 20.375 14.6151 20.3011 14.708 20.208L21.708 13.208Z" fill="#1B1B30"/>
</svg>
