<svg width="42" height="42" viewBox="0 0 42 42" fill="none" xmlns="http://www.w3.org/2000/svg">
<path d="M25.375 5.25H13.776C12.9334 5.25 12.25 5.93337 12.25 6.776V13.1276H25.375V5.25Z" fill="#169154"/>
<path d="M12.25 28.9219V35.2236C12.25 36.0663 12.9334 36.7496 13.7751 36.7496H25.375V28.9219H12.25Z" fill="#18482A"/>
<path d="M12.25 13.1279H25.375V21.0047H12.25V13.1279Z" fill="#0C8045"/>
<path d="M12.25 21.0039H25.375V28.9227H12.25V21.0039Z" fill="#17472A"/>
<path d="M36.974 5.25H25.375V13.1276H38.5V6.776C38.5 5.93337 37.8166 5.25 36.974 5.25Z" fill="#29C27F"/>
<path d="M25.375 28.9219V36.7496H36.9749C37.8166 36.7496 38.5 36.0662 38.5 35.2245V28.9227L25.375 28.9219Z" fill="#27663F"/>
<path d="M25.375 13.1279H38.5V21.0047H25.375V13.1279Z" fill="#19AC65"/>
<path d="M25.375 21.0039H38.5V28.9227H25.375V21.0039Z" fill="#129652"/>
<path d="M19.5291 29.75H4.97088C4.15888 29.75 3.5 29.0911 3.5 28.2791V13.7209C3.5 12.9089 4.15888 12.25 4.97088 12.25H19.5291C20.3411 12.25 21 12.9089 21 13.7209V28.2791C21 29.0911 20.3411 29.75 19.5291 29.75Z" fill="#0C7238"/>
<path d="M8.58084 16.625H10.6686L12.3626 19.9097L14.1528 16.625H16.1032L13.4161 21L16.1645 25.375H14.1073L12.2611 21.9362L10.4227 25.375H8.33496L11.1288 20.9843L8.58084 16.625Z" fill="white"/>
</svg>
