<svg width="30" height="31" viewBox="0 0 30 31" fill="none" xmlns="http://www.w3.org/2000/svg">
<g clip-path="url(#clip0_98_1079)">
<path d="M23.3333 3.83325H9.99992C9.55789 3.83325 9.13397 4.00885 8.82141 4.32141C8.50885 4.63397 8.33325 5.05789 8.33325 5.49992H23.3333V25.4999H9.99992V17.3333H8.33325V25.4999C8.33325 25.9419 8.50885 26.3659 8.82141 26.6784C9.13397 26.991 9.55789 27.1666 9.99992 27.1666H23.3333C23.7753 27.1666 24.1992 26.991 24.5118 26.6784C24.8243 26.3659 24.9999 25.9419 24.9999 25.4999V5.49992C24.9999 5.05789 24.8243 4.63397 24.5118 4.32141C24.1992 4.00885 23.7753 3.83325 23.3333 3.83325Z" fill="white"/>
<path d="M12.6 15.8834C12.5128 15.9581 12.4419 16.05 12.3919 16.1534C12.3419 16.2568 12.3138 16.3694 12.3093 16.4842C12.3049 16.5989 12.3242 16.7134 12.3661 16.8203C12.408 16.9273 12.4716 17.0244 12.5528 17.1056C12.634 17.1868 12.7311 17.2504 12.8381 17.2923C12.945 17.3341 13.0594 17.3535 13.1742 17.3491C13.289 17.3446 13.4016 17.3165 13.505 17.2665C13.6084 17.2165 13.7003 17.1456 13.775 17.0584L18.6 12.2334L13.7833 7.40839C13.6239 7.27187 13.4189 7.20053 13.2091 7.20863C12.9994 7.21673 12.8004 7.30367 12.652 7.45209C12.5036 7.6005 12.4167 7.79945 12.4086 8.00918C12.4005 8.21891 12.4718 8.42397 12.6083 8.58339L15.4167 11.3334H3.33333C3.11232 11.3334 2.90036 11.4212 2.74408 11.5775C2.5878 11.7337 2.5 11.9457 2.5 12.1667C2.5 12.3877 2.5878 12.5997 2.74408 12.756C2.90036 12.9123 3.11232 13.0001 3.33333 13.0001H15.4167L12.6 15.8834Z" fill="white"/>
</g>
<defs>
<clipPath id="clip0_98_1079">
<rect width="30" height="30" fill="white" transform="translate(0 0.5)"/>
</clipPath>
</defs>
</svg>
