<svg width="32" height="32" viewBox="0 0 32 32" fill="none" xmlns="http://www.w3.org/2000/svg">
<g clip-path="url(#clip0_860_2322)">
<path d="M5.20204 13.7267C5.10106 13.8304 4.98057 13.9128 4.84763 13.969C4.71469 14.0252 4.57195 14.0541 4.42777 14.0541C4.28359 14.0541 4.14086 14.0252 4.00792 13.969C3.87497 13.9128 3.75449 13.8304 3.65351 13.7267C3.44797 13.5161 3.3328 13.2325 3.3328 12.9371C3.3328 12.6417 3.44797 12.3582 3.65351 12.1475L13.2322 2.40033C15.3922 0.710728 17.5649 -0.100472 19.728 0.00992805C22.4534 0.150728 24.5753 1.19713 26.3764 2.91393C28.2124 4.66433 29.4004 7.16193 29.4004 10.1891C29.4004 12.5123 28.7302 14.5571 27.315 16.3715L13.8103 30.3875C12.4444 31.5155 10.926 32.0611 9.29968 31.9955C7.23498 31.9091 5.69916 31.2371 4.55721 30.0995C3.21992 28.7699 2.40039 27.1363 2.40039 24.9395C2.40039 23.1923 2.99916 21.5795 4.2348 20.0659L16.1212 7.84033C17.0741 6.81633 18.0064 6.20833 18.9593 6.06113C19.5954 5.96021 20.2463 6.01752 20.8553 6.22807C21.4643 6.43862 22.013 6.79602 22.4534 7.26913C23.2984 8.16993 23.6605 9.29313 23.5334 10.5715C23.4461 11.4435 23.0919 12.2467 22.4407 13.0163L11.5137 24.2931C11.4134 24.3972 11.2935 24.4801 11.161 24.537C11.0286 24.5939 10.8862 24.6236 10.7422 24.6245C10.5982 24.6254 10.4555 24.5974 10.3224 24.5422C10.1892 24.4869 10.0683 24.4055 9.96674 24.3027C9.75993 24.0933 9.64304 23.8105 9.64126 23.5151C9.63947 23.2197 9.75294 22.9354 9.95721 22.7235L20.8319 11.5043C21.1495 11.1283 21.3163 10.7491 21.356 10.3459C21.4195 9.70593 21.267 9.23393 20.8716 8.81313C20.6718 8.59762 20.4223 8.43518 20.1452 8.34027C19.8681 8.24536 19.5721 8.22092 19.2833 8.26913C18.8974 8.32833 18.3574 8.68193 17.6919 9.39553L5.8548 21.5667C5.00192 22.6147 4.58898 23.7267 4.58898 24.9411C4.58898 26.4675 5.13692 27.5603 6.0851 28.5027C6.83951 29.2547 7.86392 29.7027 9.38863 29.7667C10.4686 29.8099 11.4692 29.4499 12.3396 28.7395L25.676 14.8995C26.7004 13.5763 27.2118 12.0195 27.2118 10.1907C27.2118 7.81953 26.2954 5.89633 24.8803 4.54593C23.435 3.16673 21.7832 2.35393 19.6184 2.24193C18.0175 2.15873 16.3387 2.78593 14.6679 4.07553L5.20204 13.7267Z" fill="#1B1B30"/>
</g>
<defs>
<clipPath id="clip0_860_2322">
<rect width="32" height="32" fill="white"/>
</clipPath>
</defs>
</svg>
