<svg width="24" height="13" viewBox="0 0 24 13" fill="none" xmlns="http://www.w3.org/2000/svg">
<path d="M21.9966 0.652036L12.0006 10.396L2.00464 0.652036C1.82605 0.477591 1.58629 0.37993 1.33664 0.37993C1.08699 0.37993 0.847236 0.477591 0.668641 0.652036C0.582165 0.736764 0.513465 0.837895 0.466565 0.949508C0.419665 1.06112 0.395508 1.18097 0.395508 1.30204C0.395508 1.4231 0.419665 1.54295 0.466565 1.65456C0.513465 1.76617 0.582165 1.86731 0.668641 1.95203L11.3026 12.32C11.4894 12.5021 11.7399 12.6039 12.0006 12.6039C12.2614 12.6039 12.5119 12.5021 12.6986 12.32L23.3326 1.95404C23.4197 1.86924 23.4889 1.76786 23.5362 1.65588C23.5835 1.5439 23.6078 1.42358 23.6078 1.30204C23.6078 1.18049 23.5835 1.06017 23.5362 0.948189C23.4889 0.836206 23.4197 0.734827 23.3326 0.650035C23.154 0.47559 22.9143 0.37793 22.6646 0.37793C22.415 0.37793 22.1752 0.47559 21.9966 0.650035V0.652036Z" fill="#1B1B30"/>
</svg>
