<svg width="60" height="60" viewBox="0 0 60 60" fill="none" xmlns="http://www.w3.org/2000/svg">
<g clip-path="url(#clip0_654_611)">
<path d="M19.2681 23.14C20.2456 24.1175 20.2456 25.7 19.2681 26.675C18.2906 27.6525 16.7081 27.6525 15.7331 26.675C14.7556 25.6975 14.7556 24.115 15.7331 23.14C16.7106 22.1625 18.2931 22.1625 19.2681 23.14ZM53.8981 38.3525L52.4856 39.765C52.4181 42.8475 51.2231 45.9075 48.8981 48.2625L40.9806 56.2825C38.6231 58.67 35.4781 59.99 32.1231 60H32.0806C28.7431 60 25.6056 58.7 23.2456 56.34L4.70564 37.9575C3.08064 36.335 2.29564 34.1025 2.54564 31.825L4.45814 14.535C4.58564 13.395 5.46814 12.4875 6.60314 12.3325L23.8256 9.97746C26.1556 9.66746 28.5006 10.46 30.1456 12.105L48.8331 30.635C49.8006 31.6025 50.5756 32.6925 51.1606 33.855C53.1906 30.94 52.9056 26.8675 50.3056 24.2675L31.3281 5.75496C30.7556 5.18246 29.9656 4.91746 29.2006 5.02496L11.9781 7.37996C10.6056 7.56496 9.34814 6.60746 9.16064 5.24246C8.97564 3.87496 9.93314 2.61496 11.2981 2.42746L28.5231 0.0699634C30.8256 -0.257537 33.1956 0.547463 34.8431 2.19996L53.8156 20.7125C58.6806 25.575 58.7081 33.48 53.8956 38.355L53.8981 38.3525ZM45.3031 34.1775L26.6156 15.6475C26.0581 15.09 25.2756 14.8325 24.4981 14.93L9.21064 17.0225L7.51314 32.3725C7.43064 33.13 7.69064 33.875 8.23064 34.4125L26.7706 52.795C28.1931 54.22 30.0756 54.9975 32.0781 54.9975H32.1031C34.1181 54.9925 36.0056 54.2 37.4181 52.765L45.3356 44.745C48.2231 41.82 48.2081 37.0775 45.3006 34.1725L45.3031 34.1775Z" fill="#32BB79"/>
</g>
<defs>
<clipPath id="clip0_654_611">
<rect width="60" height="60" fill="white"/>
</clipPath>
</defs>
</svg>
