<svg width="60" height="60" viewBox="0 0 60 60" fill="none" xmlns="http://www.w3.org/2000/svg">
<g clip-path="url(#clip0_654_601)">
<path d="M59.9993 60H30.0443C24.1918 59.9972 18.4679 58.2826 13.5776 55.0675C8.68735 51.8523 4.84431 47.2769 2.52185 41.9049C0.199387 36.5329 -0.50106 30.5989 0.506783 24.8338C1.51463 19.0687 4.18674 13.7243 8.194 9.45886C12.2013 5.19341 17.3686 2.19323 23.0597 0.827846C28.7507 -0.537538 34.7168 -0.208489 40.2232 1.77446C45.7296 3.75742 50.5357 7.30766 54.0495 11.9879C57.5634 16.6682 59.6316 22.274 59.9993 28.115V28.2725V60ZM30.0443 5C23.4139 5 17.0551 7.63392 12.3667 12.3223C7.67825 17.0107 5.04433 23.3696 5.04433 30C5.04433 36.6304 7.67825 42.9893 12.3667 47.6777C17.0551 52.3661 23.4139 55 30.0443 55H54.9993V28.3525C54.5706 22.0233 51.7561 16.0926 47.1242 11.7581C42.4923 7.42358 36.388 5.0083 30.0443 5Z" fill="#32BB79"/>
<path d="M32.5 17.5H17.5V22.5H32.5V17.5Z" fill="#32BB79"/>
<path d="M42.5 27.5H17.5V32.5H42.5V27.5Z" fill="#32BB79"/>
<path d="M42.5 37.5H17.5V42.5H42.5V37.5Z" fill="#32BB79"/>
</g>
<defs>
<clipPath id="clip0_654_601">
<rect width="60" height="60" fill="white"/>
</clipPath>
</defs>
</svg>
