<svg width="60" height="60" viewBox="0 0 60 60" fill="none" xmlns="http://www.w3.org/2000/svg">
<g clip-path="url(#clip0_654_627)">
<path d="M30 0C13.4575 0 0 13.4575 0 30C0 46.5425 13.4575 60 30 60C46.5425 60 60 46.5425 60 30C60 13.4575 46.5425 0 30 0ZM30 55C16.215 55 5 43.785 5 30C5 16.215 16.215 5 30 5C43.785 5 55 16.215 55 30C55 43.785 43.785 55 30 55ZM45 30C45 37.42 39.585 43.5975 32.5 44.79V47.5C32.5 48.88 31.3825 50 30 50C28.6175 50 27.5 48.88 27.5 47.5V44.79C20.415 43.5975 15 37.42 15 30C15 28.62 16.1175 27.5 17.5 27.5C18.8825 27.5 20 28.62 20 30C20 35.515 24.485 40 30 40C35.515 40 40 35.515 40 30C40 28.62 41.1175 27.5 42.5 27.5C43.8825 27.5 45 28.62 45 30ZM25 30V17.5C25 14.7375 27.2375 12.5 30 12.5C32.7625 12.5 35 14.7375 35 17.5V30C35 32.7625 32.7625 35 30 35C27.2375 35 25 32.7625 25 30Z" fill="#32BB79"/>
</g>
<defs>
<clipPath id="clip0_654_627">
<rect width="60" height="60" fill="white"/>
</clipPath>
</defs>
</svg>
