<svg width="60" height="60" viewBox="0 0 60 60" fill="none" xmlns="http://www.w3.org/2000/svg">
<path d="M30 20C28.0222 20 26.0888 20.5865 24.4443 21.6853C22.7998 22.7841 21.5181 24.3459 20.7612 26.1732C20.0043 28.0004 19.8063 30.0111 20.1922 31.9509C20.578 33.8907 21.5304 35.6725 22.9289 37.0711C24.3275 38.4696 26.1093 39.422 28.0491 39.8079C29.9889 40.1937 31.9996 39.9957 33.8268 39.2388C35.6541 38.4819 37.2159 37.2002 38.3147 35.5557C39.4135 33.9112 40 31.9778 40 30C40 27.3478 38.9464 24.8043 37.0711 22.9289C35.1957 21.0536 32.6522 20 30 20ZM30 35C29.0111 35 28.0444 34.7068 27.2222 34.1573C26.3999 33.6079 25.759 32.827 25.3806 31.9134C25.0022 30.9998 24.9032 29.9945 25.0961 29.0245C25.289 28.0546 25.7652 27.1637 26.4645 26.4645C27.1637 25.7652 28.0546 25.289 29.0246 25.0961C29.9945 24.9031 30.9998 25.0022 31.9134 25.3806C32.8271 25.759 33.6079 26.3999 34.1574 27.2221C34.7068 28.0444 35 29.0111 35 30C35 31.3261 34.4732 32.5979 33.5355 33.5355C32.5979 34.4732 31.3261 35 30 35Z" fill="#32BB79"/>
<path d="M53.2345 34.75L52.1245 34.11C52.6242 31.3911 52.6242 28.6039 52.1245 25.885L53.2345 25.245C54.0881 24.7525 54.8363 24.0968 55.4365 23.3152C56.0367 22.5335 56.477 21.6413 56.7323 20.6895C56.9877 19.7377 57.0531 18.745 56.9248 17.7679C56.7965 16.7908 56.477 15.8486 55.9845 14.995C55.492 14.1414 54.8363 13.3932 54.0546 12.793C53.273 12.1928 52.3808 11.7525 51.429 11.4972C50.4772 11.2418 49.4845 11.1764 48.5074 11.3047C47.5303 11.433 46.5881 11.7525 45.7345 12.245L44.622 12.8875C42.5208 11.0923 40.1062 9.70062 37.4995 8.7825V7.5C37.4995 5.51088 36.7093 3.60322 35.3028 2.1967C33.8963 0.790176 31.9886 0 29.9995 0C28.0104 0 26.1027 0.790176 24.6962 2.1967C23.2897 3.60322 22.4995 5.51088 22.4995 7.5V8.7825C19.893 9.70392 17.4791 11.099 15.3795 12.8975L14.262 12.25C12.5381 11.2554 10.4897 10.9864 8.56745 11.5022C6.64521 12.0179 5.00656 13.2761 4.012 15C3.01744 16.7239 2.74843 18.7723 3.26415 20.6945C3.77988 22.6168 5.03809 24.2554 6.762 25.25L7.872 25.89C7.37227 28.6089 7.37227 31.3961 7.872 34.115L6.762 34.755C5.03809 35.7496 3.77988 37.3882 3.26415 39.3105C2.74843 41.2327 3.01744 43.2811 4.012 45.005C5.00656 46.7289 6.64521 47.9871 8.56745 48.5028C10.4897 49.0186 12.5381 48.7496 14.262 47.755L15.3745 47.1125C17.4764 48.908 19.8919 50.2997 22.4995 51.2175V52.5C22.4995 54.4891 23.2897 56.3968 24.6962 57.8033C26.1027 59.2098 28.0104 60 29.9995 60C31.9886 60 33.8963 59.2098 35.3028 57.8033C36.7093 56.3968 37.4995 54.4891 37.4995 52.5V51.2175C40.106 50.2961 42.5199 48.901 44.6195 47.1025L45.737 47.7475C47.4609 48.7421 49.5093 49.0111 51.4315 48.4953C53.3538 47.9796 54.9924 46.7214 55.987 44.9975C56.9816 43.2736 57.2506 41.2252 56.7348 39.303C56.2191 37.3807 54.9609 35.7421 53.237 34.7475L53.2345 34.75ZM46.8645 25.31C47.7111 28.3777 47.7111 31.6173 46.8645 34.685C46.7167 35.2189 46.7504 35.7868 46.9604 36.2995C47.1703 36.8122 47.5446 37.2406 48.0245 37.5175L50.7345 39.0825C51.309 39.414 51.7283 39.9602 51.9002 40.6009C52.072 41.2415 51.9823 41.9242 51.6507 42.4987C51.3192 43.0733 50.7731 43.4926 50.1324 43.6644C49.4917 43.8362 48.809 43.7465 48.2345 43.415L45.5195 41.845C45.0392 41.5668 44.4801 41.4564 43.9301 41.5311C43.3802 41.6058 42.8707 41.8613 42.482 42.2575C40.2568 44.5291 37.4534 46.1499 34.3745 46.945C33.8371 47.0832 33.3609 47.3962 33.021 47.8348C32.6811 48.2734 32.4967 48.8126 32.497 49.3675V52.5C32.497 53.163 32.2336 53.7989 31.7648 54.2678C31.2959 54.7366 30.66 55 29.997 55C29.334 55 28.6981 54.7366 28.2292 54.2678C27.7604 53.7989 27.497 53.163 27.497 52.5V49.37C27.4973 48.8151 27.3129 48.2759 26.973 47.8373C26.6331 47.3987 26.1569 47.0857 25.6195 46.9475C22.5404 46.1492 19.7378 44.5249 17.5145 42.25C17.1258 41.8538 16.6163 41.5983 16.0664 41.5236C15.5164 41.4489 14.9573 41.5593 14.477 41.8375L11.767 43.405C11.4826 43.5717 11.168 43.6806 10.8413 43.7252C10.5146 43.7699 10.1824 43.7495 9.86363 43.6652C9.54488 43.581 9.24595 43.4345 8.98405 43.2342C8.72214 43.0339 8.50244 42.7838 8.33759 42.4983C8.17273 42.2128 8.06599 41.8975 8.02349 41.5705C7.98099 41.2436 8.00359 40.9115 8.08997 40.5933C8.17636 40.2751 8.32482 39.9771 8.52683 39.7166C8.72883 39.456 8.98038 39.238 9.267 39.075L11.977 37.51C12.4569 37.2331 12.8312 36.8047 13.0411 36.292C13.2511 35.7793 13.2848 35.2114 13.137 34.6775C12.2904 31.6098 12.2904 28.3702 13.137 25.3025C13.2822 24.7697 13.2468 24.2038 13.0365 23.6932C12.8262 23.1826 12.4528 22.756 11.9745 22.48L9.2645 20.915C8.68997 20.5835 8.27067 20.0373 8.09884 19.3966C7.92701 18.756 8.01673 18.0733 8.34825 17.4987C8.67977 16.9242 9.22594 16.5049 9.86661 16.3331C10.5073 16.1613 11.19 16.251 11.7645 16.5825L14.4795 18.1525C14.9584 18.4313 15.5164 18.543 16.0658 18.4702C16.6152 18.3973 17.1248 18.144 17.5145 17.75C19.7397 15.4784 22.5431 13.8576 25.622 13.0625C26.1611 12.9239 26.6385 12.6094 26.9786 12.1688C27.3187 11.7281 27.502 11.1866 27.4995 10.63V7.5C27.4995 6.83696 27.7629 6.20107 28.2317 5.73223C28.7006 5.26339 29.3365 5 29.9995 5C30.6625 5 31.2984 5.26339 31.7673 5.73223C32.2361 6.20107 32.4995 6.83696 32.4995 7.5V10.63C32.4992 11.1849 32.6836 11.7241 33.0235 12.1627C33.3634 12.6013 33.8396 12.9143 34.377 13.0525C37.457 13.8504 40.2605 15.4747 42.4845 17.75C42.8732 18.1462 43.3827 18.4017 43.9326 18.4764C44.4826 18.5511 45.0417 18.4407 45.522 18.1625L48.232 16.595C48.5164 16.4283 48.831 16.3194 49.1577 16.2748C49.4843 16.2301 49.8166 16.2505 50.1354 16.3348C50.4541 16.419 50.753 16.5655 51.0149 16.7658C51.2769 16.9661 51.4966 17.2162 51.6614 17.5017C51.8263 17.7872 51.933 18.1025 51.9755 18.4295C52.018 18.7564 51.9954 19.0885 51.909 19.4067C51.8226 19.7249 51.6742 20.0229 51.4722 20.2834C51.2702 20.544 51.0186 20.762 50.732 20.925L48.022 22.49C47.5446 22.7668 47.1722 23.1937 46.9628 23.7042C46.7535 24.2148 46.7189 24.7803 46.8645 25.3125V25.31Z" fill="#32BB79"/>
</svg>
