<svg width="60" height="60" viewBox="0 0 60 60" fill="none" xmlns="http://www.w3.org/2000/svg">
<g clip-path="url(#clip0_654_621)">
<path d="M40.9875 25.305L28.0075 18.1975C26.325 17.25 24.325 17.2675 22.6625 18.24C20.995 19.215 20.0025 20.9475 20.0025 22.8775V37.125C20.0025 39.055 20.995 40.7875 22.6625 41.7625C23.5125 42.26 24.4475 42.505 25.38 42.505C26.275 42.505 27.17 42.2775 27.9825 41.82L41.0125 34.685C42.73 33.72 43.7525 31.97 43.7525 30.0025C43.7525 28.035 42.73 26.285 40.99 25.3075L40.9875 25.305ZM38.585 30.3125L25.555 37.45C25.5075 37.475 25.3625 37.555 25.1875 37.4475C25.0025 37.34 25.0025 37.18 25.0025 37.1275V22.88C25.0025 22.8275 25.0025 22.6675 25.1875 22.56C25.255 22.52 25.3175 22.5075 25.3725 22.5075C25.4625 22.5075 25.535 22.5475 25.58 22.5725L38.56 29.6825C38.6075 29.71 38.75 29.79 38.75 30.0075C38.75 30.225 38.605 30.305 38.585 30.32V30.3125ZM30 0C13.4575 0 0 13.4575 0 30C0 46.5425 13.4575 60 30 60C46.5425 60 60 46.5425 60 30C60 13.4575 46.5425 0 30 0ZM30 55C16.215 55 5 43.785 5 30C5 16.215 16.215 5 30 5C43.785 5 55 16.215 55 30C55 43.785 43.785 55 30 55Z" fill="#32BB79"/>
</g>
<defs>
<clipPath id="clip0_654_621">
<rect width="60" height="60" fill="white"/>
</clipPath>
</defs>
</svg>
