<svg width="60" height="60" viewBox="0 0 60 60" fill="none" xmlns="http://www.w3.org/2000/svg">
<g clip-path="url(#clip0_654_595)">
<path d="M37.5 60H22.5C15.6075 60 10 54.3925 10 47.5V12.5C10 5.6075 15.6075 0 22.5 0H37.5C44.3925 0 50 5.6075 50 12.5V47.5C50 54.3925 44.3925 60 37.5 60ZM22.5 5C18.365 5 15 8.365 15 12.5V47.5C15 51.635 18.365 55 22.5 55H37.5C41.635 55 45 51.635 45 47.5V12.5C45 8.365 41.635 5 37.5 5H22.5ZM35 47.5C35 46.12 33.88 45 32.5 45H27.5C26.12 45 25 46.12 25 47.5C25 48.88 26.12 50 27.5 50H32.5C33.88 50 35 48.88 35 47.5Z" fill="#32BB79"/>
</g>
<defs>
<clipPath id="clip0_654_595">
<rect width="60" height="60" fill="white"/>
</clipPath>
</defs>
</svg>
