<svg width="60" height="61" viewBox="0 0 60 61" fill="none" xmlns="http://www.w3.org/2000/svg">
<g clip-path="url(#clip0_607_294)">
<path d="M34.83 10.0414C36.8636 10.0434 38.8133 10.8521 40.2513 12.2901C41.6893 13.728 42.498 15.6778 42.5 17.7114C42.5 18.3744 42.7634 19.0103 43.2322 19.4791C43.7011 19.948 44.337 20.2114 45 20.2114C45.663 20.2114 46.2989 19.948 46.7678 19.4791C47.2366 19.0103 47.5 18.3744 47.5 17.7114V17.5414C47.5 17.4939 47.5 17.4514 47.5 17.4039C47.4166 14.0982 46.0453 10.9558 43.6786 8.64652C41.3118 6.33721 38.1367 5.04359 34.83 5.04138H32.5V2.54138C32.5 1.87834 32.2366 1.24246 31.7678 0.773615C31.2989 0.304774 30.663 0.0413818 30 0.0413818C29.337 0.0413818 28.7011 0.304774 28.2322 0.773615C27.7634 1.24246 27.5 1.87834 27.5 2.54138V5.04138H25.17C22.1633 5.04459 19.2557 6.11697 16.967 8.06683C14.6782 10.0167 13.1575 12.7169 12.6766 15.6849C12.1957 18.6529 12.786 21.6952 14.342 24.268C15.8979 26.8408 18.3181 28.7764 21.17 29.7289L27.5 31.8414V50.0414H25.17C23.1364 50.0394 21.1867 49.2307 19.7487 47.7927C18.3107 46.3547 17.502 44.405 17.5 42.3714C17.5 41.7083 17.2366 41.0725 16.7678 40.6036C16.2989 40.1348 15.663 39.8714 15 39.8714C14.337 39.8714 13.7011 40.1348 13.2322 40.6036C12.7634 41.0725 12.5 41.7083 12.5 42.3714V42.5414C12.5 42.5889 12.5 42.6314 12.5 42.6789C12.5834 45.9846 13.9547 49.1269 16.3214 51.4362C18.6882 53.7456 21.8633 55.0392 25.17 55.0414H27.5V57.5414C27.5 58.2044 27.7634 58.8403 28.2322 59.3092C28.7011 59.778 29.337 60.0414 30 60.0414C30.663 60.0414 31.2989 59.778 31.7678 59.3092C32.2366 58.8403 32.5 58.2044 32.5 57.5414V55.0414H34.83C37.8367 55.0382 40.7443 53.9658 43.033 52.0159C45.3218 50.0661 46.8425 47.3658 47.3234 44.3978C47.8043 41.4298 47.214 38.3875 45.658 35.8147C44.1021 33.2419 41.6819 31.3063 38.83 30.3539L32.5 28.2414V10.0414H34.83ZM37.255 35.0939C38.9836 35.6692 40.4509 36.841 41.3943 38.3995C42.3377 39.958 42.6956 41.8014 42.4038 43.5997C42.1121 45.3979 41.1898 47.0337 39.8021 48.214C38.4143 49.3942 36.6518 50.0421 34.83 50.0414H32.5V33.5089L37.255 35.0939ZM27.5 26.5739L22.75 24.9889C21.0218 24.4137 19.5548 23.2423 18.6113 21.6843C17.6679 20.1264 17.3097 18.2835 17.6008 16.4856C17.8918 14.6876 18.8132 13.0519 20.2001 11.8712C21.5869 10.6905 23.3486 10.0419 25.17 10.0414H27.5V26.5739Z" fill="#F8F8F8"/>
</g>
<defs>
<clipPath id="clip0_607_294">
<rect width="60" height="60" fill="white" transform="translate(0 0.0413818)"/>
</clipPath>
</defs>
</svg>
