<svg width="60" height="61" viewBox="0 0 60 61" fill="none" xmlns="http://www.w3.org/2000/svg">
<path d="M3.6267 16.6635C2.78951 16.9027 2.02929 17.3563 1.42125 17.9796C0.813221 18.6028 0.378457 19.374 0.15998 20.2169C-0.0584974 21.0598 -0.0531146 21.9451 0.175596 22.7852C0.404306 23.6253 0.848416 24.3912 1.46398 25.007L9.99486 33.5281V49.9951H26.4791L35.0674 58.5712C35.5284 59.0361 36.0767 59.4054 36.6809 59.6577C37.285 59.91 37.9331 60.0404 38.5878 60.0414C39.0181 60.0405 39.4466 59.9851 39.8629 59.8764C40.7054 59.6642 41.4771 59.2337 42.1004 58.6285C42.7237 58.0232 43.1765 57.2644 43.4133 56.4284L60 0.0413818L3.6267 16.6635ZM5.01685 21.4716L47.5912 8.91999L15.0004 41.4591V31.4578L5.01685 21.4716ZM38.6203 55.0358L28.5518 44.9945H18.5507L51.1366 12.4354L38.6203 55.0358Z" fill="#F8F8F8"/>
</svg>
