<svg width="61" height="60" viewBox="0 0 61 60" fill="none" xmlns="http://www.w3.org/2000/svg">
<g clip-path="url(#clip0_651_339)">
<path d="M23 60H3C2.33696 60 1.70107 59.7366 1.23223 59.2678C0.763392 58.7989 0.5 58.163 0.5 57.5C0.5 56.837 0.763392 56.2011 1.23223 55.7322C1.70107 55.2634 2.33696 55 3 55H23C23.663 55 24.2989 55.2634 24.7678 55.7322C25.2366 56.2011 25.5 56.837 25.5 57.5C25.5 58.163 25.2366 58.7989 24.7678 59.2678C24.2989 59.7366 23.663 60 23 60Z" fill="white"/>
<path d="M18 50H3C2.33696 50 1.70107 49.7366 1.23223 49.2678C0.763392 48.7989 0.5 48.163 0.5 47.5C0.5 46.837 0.763392 46.2011 1.23223 45.7322C1.70107 45.2634 2.33696 45 3 45H18C18.663 45 19.2989 45.2634 19.7678 45.7322C20.2366 46.2011 20.5 46.837 20.5 47.5C20.5 48.163 20.2366 48.7989 19.7678 49.2678C19.2989 49.7366 18.663 50 18 50Z" fill="white"/>
<path d="M13 40H3C2.33696 40 1.70107 39.7366 1.23223 39.2678C0.763392 38.7989 0.5 38.163 0.5 37.5C0.5 36.837 0.763392 36.2011 1.23223 35.7322C1.70107 35.2634 2.33696 35 3 35H13C13.663 35 14.2989 35.2634 14.7678 35.7322C15.2366 36.2011 15.5 36.837 15.5 37.5C15.5 38.163 15.2366 38.7989 14.7678 39.2678C14.2989 39.7366 13.663 40 13 40Z" fill="white"/>
<path d="M33 59.8875C32.3369 59.917 31.6893 59.6819 31.1996 59.2339C30.7099 58.786 30.4182 58.1618 30.3887 57.4988C30.3592 56.8357 30.5943 56.1881 31.0423 55.6984C31.4903 55.2087 32.1144 54.917 32.7775 54.8875C37.5086 54.4546 42.0185 52.6826 45.7788 49.779C49.5391 46.8754 52.3943 42.9604 54.0098 38.4926C55.6253 34.0248 55.9343 29.1891 54.9006 24.552C53.8669 19.9149 51.5333 15.6684 48.1731 12.3098C44.8129 8.95114 40.5653 6.6195 35.9278 5.58793C31.2902 4.55637 26.4547 4.8676 21.9876 6.48516C17.5206 8.10273 13.6069 10.9597 10.705 14.7213C7.80313 18.483 6.03317 22.9937 5.60246 27.725C5.54278 28.3854 5.22322 28.995 4.71405 29.4198C4.20489 29.8446 3.54785 30.0497 2.88746 29.99C2.22707 29.9303 1.61743 29.6108 1.19266 29.1016C0.767892 28.5924 0.562783 27.9354 0.622457 27.275C1.31968 19.5833 4.95647 12.4568 10.7758 7.37892C16.5951 2.30109 24.1486 -0.336827 31.8638 0.0142922C39.5791 0.365411 46.8618 3.67851 52.1958 9.26393C57.5298 14.8494 60.5043 22.2767 60.5 30C60.5383 37.4959 57.7535 44.7315 52.6997 50.2675C47.6459 55.8036 40.6933 59.2344 33.225 59.8775C33.15 59.885 33.0725 59.8875 33 59.8875Z" fill="white"/>
<path d="M30.5 15C29.837 15 29.2011 15.2634 28.7322 15.7322C28.2634 16.2011 28 16.837 28 17.5V30C28.0001 30.663 28.2636 31.2988 28.7325 31.7675L36.2325 39.2675C36.704 39.7229 37.3355 39.9749 37.991 39.9692C38.6465 39.9635 39.2735 39.7006 39.737 39.237C40.2006 38.7735 40.4635 38.1465 40.4692 37.491C40.4749 36.8355 40.2229 36.204 39.7675 35.7325L33 28.965V17.5C33 16.837 32.7366 16.2011 32.2678 15.7322C31.7989 15.2634 31.163 15 30.5 15Z" fill="white"/>
</g>
<defs>
<clipPath id="clip0_651_339">
<rect width="60" height="60" fill="white" transform="translate(0.5)"/>
</clipPath>
</defs>
</svg>
