<svg width="60" height="61" viewBox="0 0 60 61" fill="none" xmlns="http://www.w3.org/2000/svg">
<g clip-path="url(#clip0_607_300)">
<path d="M60 60.0414H30C13.4575 60.0414 0 46.5839 0 30.0414C0 13.4989 13.4575 0.0413818 30 0.0413818C46.5425 0.0413818 60 13.4989 60 30.0414V60.0414ZM30 5.04138C16.215 5.04138 5 16.2564 5 30.0414C5 43.8264 16.215 55.0414 30 55.0414H55V30.0414C55 16.2564 43.785 5.04138 30 5.04138ZM46.375 34.4164C45.205 34.4164 44.08 33.9464 43.365 33.1564L42.315 31.9989L40 34.0989L41.05 35.2539C42.3675 36.7064 44.31 37.5389 46.375 37.5389C48.9275 37.5389 51.075 35.9064 51.475 33.6589C51.7775 31.9639 51.01 29.7539 47.955 28.6239C46.31 28.0164 44.8125 27.3589 44.775 27.3589C44.4175 27.1164 44.43 26.7514 44.45 26.6039C44.48 26.4064 44.6225 25.9214 45.355 25.7014C46.9975 25.2114 48.5175 26.3989 48.58 26.4489L49.77 27.4464L51.7825 25.0539L50.585 24.0489C50.4725 23.9539 47.7475 21.7139 44.455 22.7064C42.7775 23.2114 41.59 24.5339 41.3575 26.1564C41.14 27.6814 41.8025 29.1489 43.3 30.1039C43.3 30.1039 44.995 30.8614 46.875 31.5539C47.2725 31.7014 48.555 32.2439 48.4 33.1064C48.285 33.7464 47.4975 34.4089 46.375 34.4089V34.4164ZM14.595 34.5014C13.425 34.5014 12.3 34.0314 11.585 33.2414L10.535 32.0839L8.22 34.1839L9.27 35.3389C10.5875 36.7914 12.53 37.6239 14.595 37.6239C17.1475 37.6239 19.295 35.9914 19.695 33.7439C19.9975 32.0489 19.23 29.8389 16.175 28.7089C14.53 28.1014 13.0325 27.4439 12.995 27.4439C12.6375 27.2014 12.65 26.8364 12.67 26.6889C12.7 26.4914 12.8425 26.0064 13.575 25.7864C15.2175 25.2964 16.7375 26.4839 16.8 26.5339L17.99 27.5314L20.0025 25.1389L18.805 24.1339C18.6925 24.0389 15.9675 21.7989 12.675 22.7914C10.9975 23.2964 9.81 24.6189 9.5775 26.2414C9.36 27.7664 10.0225 29.2339 11.52 30.1889C11.52 30.1889 13.215 30.9464 15.095 31.6389C15.4925 31.7864 16.775 32.3289 16.62 33.1914C16.505 33.8314 15.7175 34.4939 14.595 34.4939V34.5014ZM37.5 22.5414H34.3675L30 27.5414L25.6325 22.5414H22.5V37.5414H25.625L25.63 27.8064L30 32.5414L34.3675 27.8114V37.5414H37.4925L37.5 22.5414Z" fill="#F8F8F8"/>
</g>
<defs>
<clipPath id="clip0_607_300">
<rect width="60" height="60" fill="white" transform="translate(0 0.0413818)"/>
</clipPath>
</defs>
</svg>
