<svg width="60" height="61" viewBox="0 0 60 61" fill="none" xmlns="http://www.w3.org/2000/svg">
<g clip-path="url(#clip0_607_288)">
<path d="M40.745 20.7614L44.255 24.3239L29.7725 38.5914C28.805 39.5589 27.5325 40.0414 26.255 40.0414C24.9775 40.0414 23.6925 39.5539 22.715 38.5789L15.76 31.8389L19.2425 28.2464L26.225 35.0139L40.745 20.7614ZM60 30.0414C60 46.5839 46.5425 60.0414 30 60.0414C13.4575 60.0414 0 46.5839 0 30.0414C0 13.4989 13.4575 0.0413818 30 0.0413818C46.5425 0.0413818 60 13.4989 60 30.0414ZM55 30.0414C55 16.2564 43.785 5.04138 30 5.04138C16.215 5.04138 5 16.2564 5 30.0414C5 43.8264 16.215 55.0414 30 55.0414C43.785 55.0414 55 43.8264 55 30.0414Z" fill="#F8F8F8"/>
</g>
<defs>
<clipPath id="clip0_607_288">
<rect width="60" height="60" fill="white" transform="translate(0 0.0413818)"/>
</clipPath>
</defs>
</svg>
