<svg width="61" height="60" viewBox="0 0 61 60" fill="none" xmlns="http://www.w3.org/2000/svg">
<g clip-path="url(#clip0_651_349)">
<path d="M53 17.5H45.165C46.8977 15.9202 48.2708 13.9865 49.1913 11.8299C50.1117 9.67331 50.558 7.3441 50.5 5H45.5C45.5 12.2025 40.5725 15.7675 35.12 17C36.7572 14.0795 37.7399 10.838 38 7.5C38 5.51088 37.2098 3.60322 35.8033 2.1967C34.3968 0.790176 32.4891 0 30.5 0C28.5109 0 26.6032 0.790176 25.1967 2.1967C23.7902 3.60322 23 5.51088 23 7.5C23.2601 10.838 24.2428 14.0795 25.88 17C20.4275 15.7675 15.5 12.2025 15.5 5H10.5C10.442 7.3441 10.8883 9.67331 11.8087 11.8299C12.7292 13.9865 14.1023 15.9202 15.835 17.5H8C6.01088 17.5 4.10322 18.2902 2.6967 19.6967C1.29018 21.1032 0.5 23.0109 0.5 25L0.5 35H5.5V60H55.5V35H60.5V25C60.5 23.0109 59.7098 21.1032 58.3033 19.6967C56.8968 18.2902 54.9891 17.5 53 17.5ZM30.5 5C31.163 5 31.7989 5.26339 32.2678 5.73223C32.7366 6.20107 33 6.83696 33 7.5C32.6982 10.1571 31.8468 12.7223 30.5 15.0325C29.1532 12.7223 28.3018 10.1571 28 7.5C28 6.83696 28.2634 6.20107 28.7322 5.73223C29.2011 5.26339 29.837 5 30.5 5ZM5.5 25C5.5 24.337 5.76339 23.7011 6.23223 23.2322C6.70107 22.7634 7.33696 22.5 8 22.5H28V30H5.5V25ZM10.5 35H28V55H10.5V35ZM50.5 55H33V35H50.5V55ZM55.5 30H33V22.5H53C53.663 22.5 54.2989 22.7634 54.7678 23.2322C55.2366 23.7011 55.5 24.337 55.5 25V30Z" fill="white"/>
</g>
<defs>
<clipPath id="clip0_651_349">
<rect width="60" height="60" fill="white" transform="translate(0.5)"/>
</clipPath>
</defs>
</svg>
