<svg width="24" height="20" viewBox="0 0 24 20" fill="none" xmlns="http://www.w3.org/2000/svg">
<path d="M13.4697 19.5298C13.3292 19.3892 13.2503 19.1986 13.2503 18.9998C13.2503 18.8011 13.3292 18.6105 13.4697 18.4698L21.1884 10.7498L0.999683 10.7498C0.800772 10.7498 0.610004 10.6708 0.469353 10.5302C0.328701 10.3895 0.249683 10.1988 0.249683 9.99985C0.249683 9.80093 0.328701 9.61017 0.469353 9.46952C0.610004 9.32886 0.800772 9.24985 0.999683 9.24985L21.1884 9.24985L13.4697 1.52985C13.3372 1.38767 13.2651 1.19963 13.2685 1.00532C13.2719 0.811023 13.3506 0.625638 13.4881 0.488225C13.6255 0.350812 13.8109 0.2721 14.0052 0.268672C14.1995 0.265243 14.3875 0.337366 14.5297 0.469846L23.5297 9.46985C23.6701 9.61047 23.749 9.8011 23.749 9.99985C23.749 10.1986 23.6701 10.3892 23.5297 10.5298L14.5297 19.5298C14.3891 19.6703 14.1984 19.7492 13.9997 19.7492C13.8009 19.7492 13.6103 19.6703 13.4697 19.5298Z" fill="black"/>
</svg>
